<mxfile host="app.diagrams.net" modified="2021-03-10T09:31:48.140Z" agent="5.0 (Windows NT 10.0; Win64; x64) AppleWebKit/537.36 (KHTML, like Gecko) Chrome/88.0.4324.150 Safari/537.36 Edg/88.0.705.63" etag="N3MfdWabNzNy-Y7OltTs" version="14.4.5" type="github">
  <diagram name="Page-1" id="c7558073-3199-34d8-9f00-42111426c3f3">
    <mxGraphModel dx="196" dy="1615" grid="1" gridSize="10" guides="1" tooltips="1" connect="1" arrows="1" fold="1" page="1" pageScale="1" pageWidth="826" pageHeight="1169" background="#ffffff" math="0" shadow="0">
      <root>
        <mxCell id="0" />
        <mxCell id="1" parent="0" />
        <mxCell id="5mUksrPkFR5Vi3ICn5GK-96" value="&lt;p style=&quot;margin: 0px ; margin-top: 4px ; text-align: center ; text-decoration: underline&quot;&gt;maxcompute_project_name&lt;/p&gt;&lt;hr&gt;&lt;p style=&quot;margin: 0px ; margin-left: 8px&quot;&gt;&lt;br&gt;&lt;/p&gt;" style="verticalAlign=middle;align=center;overflow=fill;fontSize=12;fontFamily=Helvetica;html=1;rounded=1;fontStyle=1;strokeWidth=3;fillColor=#E6FFCC" vertex="1" parent="1">
          <mxGeometry x="1157" y="-72" width="526" height="351" as="geometry" />
        </mxCell>
        <mxCell id="5mUksrPkFR5Vi3ICn5GK-97" value="" style="rounded=1;whiteSpace=wrap;html=1;dashed=1;" vertex="1" parent="1">
          <mxGeometry x="1520.75" y="-40.5" width="127.5" height="312" as="geometry" />
        </mxCell>
        <mxCell id="5mUksrPkFR5Vi3ICn5GK-98" value="" style="rounded=1;whiteSpace=wrap;html=1;dashed=1;" vertex="1" parent="1">
          <mxGeometry x="1190" y="-40.5" width="224" height="257" as="geometry" />
        </mxCell>
        <mxCell id="5mUksrPkFR5Vi3ICn5GK-99" value="RAM user 3" style="ellipse;whiteSpace=wrap;html=1;" vertex="1" parent="1">
          <mxGeometry x="1199" y="79.5" width="97" height="42" as="geometry" />
        </mxCell>
        <mxCell id="5mUksrPkFR5Vi3ICn5GK-100" value="RAM user 2" style="ellipse;whiteSpace=wrap;html=1;" vertex="1" parent="1">
          <mxGeometry x="1199" y="23.5" width="97" height="42" as="geometry" />
        </mxCell>
        <mxCell id="5mUksrPkFR5Vi3ICn5GK-101" value="RAM user 1" style="ellipse;whiteSpace=wrap;html=1;" vertex="1" parent="1">
          <mxGeometry x="1199" y="-32.5" width="97" height="42" as="geometry" />
        </mxCell>
        <mxCell id="5mUksrPkFR5Vi3ICn5GK-102" value="RAM role 3" style="ellipse;whiteSpace=wrap;html=1;" vertex="1" parent="1">
          <mxGeometry x="1310" y="79.5" width="97" height="42" as="geometry" />
        </mxCell>
        <mxCell id="5mUksrPkFR5Vi3ICn5GK-103" value="RAM role 2" style="ellipse;whiteSpace=wrap;html=1;" vertex="1" parent="1">
          <mxGeometry x="1310" y="23.5" width="97" height="42" as="geometry" />
        </mxCell>
        <mxCell id="5mUksrPkFR5Vi3ICn5GK-104" value="RAM role 1" style="ellipse;whiteSpace=wrap;html=1;" vertex="1" parent="1">
          <mxGeometry x="1310" y="-32.5" width="97" height="42" as="geometry" />
        </mxCell>
        <mxCell id="5mUksrPkFR5Vi3ICn5GK-105" value="RAM user n" style="ellipse;whiteSpace=wrap;html=1;" vertex="1" parent="1">
          <mxGeometry x="1199" y="135.5" width="97" height="42" as="geometry" />
        </mxCell>
        <mxCell id="5mUksrPkFR5Vi3ICn5GK-106" value="RAM role n" style="ellipse;whiteSpace=wrap;html=1;" vertex="1" parent="1">
          <mxGeometry x="1310" y="135.5" width="97" height="42" as="geometry" />
        </mxCell>
        <mxCell id="5mUksrPkFR5Vi3ICn5GK-107" value="Tables" style="ellipse;whiteSpace=wrap;html=1;" vertex="1" parent="1">
          <mxGeometry x="1536" y="-32.5" width="97" height="42" as="geometry" />
        </mxCell>
        <mxCell id="5mUksrPkFR5Vi3ICn5GK-108" value="Custom funcs" style="ellipse;whiteSpace=wrap;html=1;" vertex="1" parent="1">
          <mxGeometry x="1536" y="23.5" width="97" height="42" as="geometry" />
        </mxCell>
        <mxCell id="5mUksrPkFR5Vi3ICn5GK-109" value="Resources" style="ellipse;whiteSpace=wrap;html=1;" vertex="1" parent="1">
          <mxGeometry x="1539" y="79.5" width="97" height="42" as="geometry" />
        </mxCell>
        <mxCell id="5mUksrPkFR5Vi3ICn5GK-110" value="Instances" style="ellipse;whiteSpace=wrap;html=1;" vertex="1" parent="1">
          <mxGeometry x="1539" y="135.5" width="97" height="42" as="geometry" />
        </mxCell>
        <mxCell id="5mUksrPkFR5Vi3ICn5GK-111" value="Packages" style="ellipse;whiteSpace=wrap;html=1;" vertex="1" parent="1">
          <mxGeometry x="1539" y="191.5" width="97" height="42" as="geometry" />
        </mxCell>
        <mxCell id="5mUksrPkFR5Vi3ICn5GK-112" value="Member list" style="text;html=1;align=center;verticalAlign=middle;resizable=0;points=[];autosize=1;" vertex="1" parent="1">
          <mxGeometry x="1266" y="188.5" width="72" height="18" as="geometry" />
        </mxCell>
        <mxCell id="5mUksrPkFR5Vi3ICn5GK-113" value="Project objects" style="text;html=1;align=center;verticalAlign=middle;resizable=0;points=[];autosize=1;" vertex="1" parent="1">
          <mxGeometry x="1543" y="247.5" width="89" height="18" as="geometry" />
        </mxCell>
        <mxCell id="5mUksrPkFR5Vi3ICn5GK-114" value="" style="shape=flexArrow;endArrow=classic;html=1;entryX=0;entryY=0.5;entryDx=0;entryDy=0;dashed=1;" edge="1" parent="1" target="5mUksrPkFR5Vi3ICn5GK-97">
          <mxGeometry width="50" height="50" relative="1" as="geometry">
            <mxPoint x="1412.9999999999995" y="116" as="sourcePoint" />
            <mxPoint x="1483" y="69" as="targetPoint" />
          </mxGeometry>
        </mxCell>
        <mxCell id="5mUksrPkFR5Vi3ICn5GK-115" value="Access" style="text;html=1;align=center;verticalAlign=middle;resizable=0;points=[];autosize=1;" vertex="1" parent="1">
          <mxGeometry x="1439" y="89" width="49" height="18" as="geometry" />
        </mxCell>
      </root>
    </mxGraphModel>
  </diagram>
</mxfile>
